<svg xmlns="http://www.w3.org/2000/svg" width="342" height="50" viewBox="0 0 342 50"><path fill="#fff" d="M16.2 47.1a31.8 31.8 0 0 1-11.9-1.9l-1.5-9.9h1.5l1.5 2.6c2.6 4.6 5.6 7.1 10.8 7.1s7.1-2.5 7.1-6.2-2.2-5.3-8.9-8.1S3.6 24.3 3.6 17.8 10 5.2 18 5.2c5.1 0 7.5.5 10.5 1.7l1.6 10.3h-1.6l-1.4-2.7c-2.4-4.8-5.2-7.3-9.6-7.3a5.4 5.4 0 0 0-5.7 5.6c0 3.6 2.4 5.4 7.9 7.6C28.2 24 32 26.8 32 33.7s-7.8 13.4-15.8 13.4z"/><path fill="#fff" d="M80.7 18.9l-.8.2c-2.3.6-3.6 1.9-5.8 7.2l-8.4 20.6-2.7.7-7-16.9-8 16.2-2.7.7-8.9-21.2c-2.2-5.4-2.9-6.6-5.5-7.3l-.8-.2v-1.2h17v1.2l-.7.2c-1.3.3-2 1.1-2 1.9a7.6 7.6 0 0 0 .5 2.7l4.9 14 4.9-10.2-1.5-3.7c-1.3-3.2-2.2-4.2-3.9-4.7l-.6-.2v-1.2h16.8v1.2l-.8.2c-1.7.4-2.3 1.1-2.3 2a9.6 9.6 0 0 0 .5 3.2l4.2 12.3 3.5-9.9a15.8 15.8 0 0 0 1.2-5.1c0-1.1-.7-1.9-2.6-2.4l-1-.3v-1.2h12.5zm6.8 11.3c.4 7.3 4.7 11.7 10.6 11.7a11.4 11.4 0 0 0 7.2-2.3l.7.9c-3.9 4.6-7.9 6.7-13.4 6.7-7.4 0-13.6-5-13.6-14.2s7.6-16.1 15.3-16.1 12.1 5 12.2 13.3zm9.7-2.3c-.2-6.3-1.8-8.8-4.7-8.8s-4.9 3-5.1 8.8zm20.5 2.3c.5 7.3 4.7 11.7 10.7 11.7a11.3 11.3 0 0 0 7.1-2.3l.8.9c-3.9 4.6-7.9 6.7-13.5 6.7-7.4 0-13.6-5-13.6-14.2s7.6-16.1 15.3-16.1 12.1 5 12.3 13.3zm9.7-2.3c-.2-6.3-1.7-8.8-4.7-8.8s-4.8 3-5 8.8zm31.9 15.3a13.2 13.2 0 0 1-9.1 3.9c-5.3 0-8.2-2.1-8.2-7.9V21h-4.3v-1.8l4.9-2.1 5.6-9h3.2v9.6h7.1V21h-7.1v18.6c0 2.6 1.3 3.5 3.2 3.5a6.2 6.2 0 0 0 3.7-1.2zm55.5-38.8l-2 13.1h-1.4l-1-3.6c-1.1-3.8-2.6-5.3-7.6-5.6l-4.2-.2v26.2c0 9.2.4 10 4.5 10.8l1.9.4v1.2h-22.8v-1.2l2-.4c4.1-.8 4.5-1.6 4.5-10.8V8.1l-3.3.2c-5.4.1-7.3 2.1-9.2 5.6l-1.8 3.6h-1.5l1-13.1h1.9c1.5 1.2 2.6 1.5 18.1 1.5s17.5-.3 19.1-1.5z"/><path fill="#fff" d="M232.4 26.4a33.5 33.5 0 0 1-7.2-1.3l-2.2.8v11.4c0 6.6.5 7.1 4.2 8l.7.2v1.2H210v-1.2l1-.2c2-.4 2.6-1.5 2.6-7.9V26.8c0-3.4-.6-4.4-2.5-5.6l-1.1-.8v-.9l11.9-2.5 1.1.7v6c4-5.8 5.7-6.6 8.4-6.6a3.6 3.6 0 0 1 3.9 3.9c0 3.9-1.3 5.4-2.9 5.4zm11.3 3.8c.4 7.3 4.7 11.7 10.6 11.7a11 11 0 0 0 7.1-2.3l.8.9c-3.9 4.6-7.9 6.7-13.4 6.7-7.5 0-13.6-5-13.6-14.2s7.6-16.1 15.3-16.1 12.1 5 12.2 13.3zm9.6-2.3c-.1-6.3-1.7-8.8-4.6-8.8s-4.9 3-5.1 8.8zm40.5 18a16.9 16.9 0 0 1-6.3 1c-3.2 0-5.6-1.4-6.5-4-2.6 2.7-5 4.2-8.9 4.2a7 7 0 0 1-7.2-6.9c0-4.5 2.3-6.3 9.1-8.4 2.3-.7 4.5-1.3 6.9-1.8v-3.7c0-5.1-2.1-6.2-4.6-6.2a2.8 2.8 0 0 0-1.4.2c-1.1 6.6-2.4 8.4-4.8 8.4a3.6 3.6 0 0 1-3.7-3.7c0-2.7 5.2-7.9 13.8-7.9s10.1 2.8 10.1 8.6v16.6c0 1.6.8 2.4 2 2.4h1.2zm-12.9-14.2l-4 1.6c-2.4 1.3-3.7 2.6-3.7 4.7s2.2 3.9 5 3.9a10.1 10.1 0 0 0 2.7-.3zm33.8 11.5a13.2 13.2 0 0 1-9.1 3.9c-5.3 0-8.2-2.1-8.2-7.9V21h-4.3v-1.8l4.9-2.1 5.6-9h3.2v9.6h7.1V21h-7.1v18.6c0 2.6 1.3 3.5 3.2 3.5a6.2 6.2 0 0 0 3.7-1.2zm12.8 3.9a29 29 0 0 1-10.6-2.1v-7.7h3.3c1 4.8 3.9 7.7 7.8 7.7s4.7-1.6 4.7-4-1.1-3.5-6.1-5c-7.3-2.2-9.5-4.8-9.5-9.7s4.4-9.3 11.2-9.3c3.2 0 7.2.7 9.3 2v7.3h-3.3c-1-4.6-3-7.2-6.6-7.2a3.7 3.7 0 0 0-4 3.8c0 2.7 1.2 3.7 6.1 5.2 7.4 2.2 9.5 4.8 9.5 9.4 0 6.2-5.5 9.6-11.8 9.6z"/></svg>